<?xml version="1.0" encoding="utf-8"?>
<!-- Generator: Adobe Illustrator 16.0.0, SVG Export Plug-In . SVG Version: 6.00 Build 0)  -->
<!DOCTYPE svg PUBLIC "-//W3C//DTD SVG 1.1//EN" "http://www.w3.org/Graphics/SVG/1.1/DTD/svg11.dtd">
<svg version="1.1" id="Layer_1" xmlns="http://www.w3.org/2000/svg" xmlns:xlink="http://www.w3.org/1999/xlink" x="0px" y="0px"
	 width="566.929px" height="566.929px" viewBox="0 0 566.929 566.929" enable-background="new 0 0 566.929 566.929"
	 xml:space="preserve">
<path fill="#FFFFFF" d="M384.028,87.997c34.246,0,62.018,27.778,62.018,62.007c0,34.246-27.771,62.001-62.018,62.001
	c-34.22,0-62.006-27.755-62.006-62.001C322.022,115.775,349.808,87.997,384.028,87.997z M182.9,87.997
	c34.222,0,62.009,27.778,62.009,62.007c0,34.246-27.787,62.001-62.009,62.001c-34.245,0-62.015-27.755-62.015-62.001
	C120.885,115.775,148.655,87.997,182.9,87.997z M383.951,478.932c-55.856,0-60.431-93.224-100.485-93.224
	c-40.043,0-44.64,93.224-100.499,93.224c-33.503,0-92.206-104.302-92.206-200.183c0-31.46,7.427-65.178,11.644-78.214
	c15.927,27.904,45.896,46.801,80.259,46.911c-23.057,38.486-27.313,91.782,0.304,156.15c13.932-11.272,58.361-90.453,100.499-90.453
	c42.126,0,86.573,79.181,100.485,90.453c27.622-64.368,23.354-117.664,0.326-156.15c34.331-0.11,64.323-19.007,80.245-46.919
	c4.228,13.044,11.646,46.746,11.646,78.222C476.168,374.63,417.454,478.932,383.951,478.932z"/>
</svg>
